<svg width="20" height="20" viewBox="0 0 20 20" fill="none" xmlns="http://www.w3.org/2000/svg">
<path d="M1.82008 0.521738C-0.901122 2.60869 -0.553735 6.4058 2.74644 10.6667C4.16494 12.4928 7.9283 16.2319 9.75208 17.6232C11.7206 19.1304 13.8628 20 15.6287 20C18.0894 20 20 18.4928 20 16.5507C20 15.7681 19.7395 15.5362 17.5104 14.2319C16.1498 13.4203 14.7313 12.7536 14.4129 12.7536C14.0655 12.7536 13.3417 13.0145 12.7917 13.3623C12.2127 13.7101 11.5469 13.8841 11.1995 13.7971C10.389 13.5942 6.10452 9.21739 6.10452 8.57971C6.10452 8.34783 6.36506 7.71014 6.6835 7.18841C7.00193 6.66667 7.26248 5.94203 7.26248 5.5942C7.26248 5.27536 6.59665 3.85507 5.78608 2.49275C4.45443 0.173914 4.25179 0 3.41227 0C2.89119 0 2.19641 0.231882 1.82008 0.521738Z" fill="black"/>
</svg>
